<svg width="32" height="32" viewBox="0 0 32 32" fill="none" xmlns="http://www.w3.org/2000/svg">
<path d="M26.667 16.3657C26.667 16.872 26.2908 17.2904 25.8027 17.3566L25.667 17.3657L5.66699 17.3657C5.11471 17.3657 4.66699 16.918 4.66699 16.3657C4.66699 15.8595 5.0432 15.4411 5.5313 15.3749L5.66699 15.3657L25.667 15.3657C26.2193 15.3657 26.667 15.8134 26.667 16.3657Z" fill="black"/>
<path d="M14.439 23.6897C14.8303 24.0794 14.8317 24.7126 14.442 25.1039C14.0878 25.4597 13.5323 25.4932 13.1402 25.2036L13.0278 25.107L4.96115 17.075C4.6043 16.7197 4.57184 16.1622 4.86378 15.7701L4.96109 15.6578L13.0278 7.62444C13.4191 7.23472 14.0523 7.23603 14.442 7.62737C14.7963 7.98312 14.8274 8.53874 14.5361 8.92962L14.439 9.04158L7.08433 16.3667L14.439 23.6897Z" fill="black"/>
</svg>
