<svg width="20" height="20" viewBox="0 0 20 20" fill="none" xmlns="http://www.w3.org/2000/svg">
<path fill-rule="evenodd" clip-rule="evenodd" d="M7.34837 3.33455C8.46359 2.26651 9.97607 1.6665 11.5532 1.6665C13.1304 1.6665 14.643 2.26653 15.7582 3.33458C16.8735 4.40264 17.5 5.85123 17.5 7.36168C17.5 8.8721 16.8736 10.3207 15.7583 11.3888L9.75122 17.1418C8.9546 17.9047 7.8742 18.3332 6.74768 18.3332C5.62112 18.3332 4.54071 17.9046 3.74412 17.1417C2.94752 16.3788 2.5 15.3441 2.5 14.2652C2.5 13.1863 2.9475 12.1516 3.74409 11.3888L9.75122 5.63575C10.2292 5.17797 10.8774 4.92094 11.5533 4.92094C12.2292 4.92094 12.8775 5.17809 13.3554 5.63583C13.8334 6.09357 14.1019 6.71439 14.1019 7.36173C14.1019 8.00902 13.8335 8.62978 13.3555 9.08755L7.34837 14.8406L6.14694 13.69L12.1541 7.93695C12.3133 7.78441 12.4028 7.57756 12.4028 7.36173C12.4028 7.14595 12.3133 6.93901 12.154 6.78643C11.9947 6.63385 11.7786 6.54813 11.5533 6.54813C11.3279 6.54813 11.1119 6.63382 10.9526 6.78635L4.94552 12.5394C4.46756 12.9971 4.19907 13.6179 4.19907 14.2652C4.19907 14.9125 4.46758 15.5333 4.94554 15.9911C5.4235 16.4488 6.07175 16.706 6.74768 16.706C7.42365 16.706 8.07186 16.4489 8.54979 15.9912L14.5569 10.2382C15.3535 9.47528 15.8009 8.44062 15.8009 7.36168C15.8009 6.28278 15.3534 5.24808 14.5568 4.48518C13.7602 3.72229 12.6798 3.2937 11.5532 3.2937C10.4267 3.2937 9.34639 3.72226 8.54979 4.48515L3.74409 9.08755L2.54267 7.93695L7.34837 3.33455Z" fill="#808191"/>
</svg>
