<svg width="12" height="12" viewBox="0 0 12 12" fill="none" xmlns="http://www.w3.org/2000/svg">
<path d="M7.17474 5.99929L10.7551 2.42723C10.9119 2.27044 11 2.05779 11 1.83605C11 1.61432 10.9119 1.40167 10.7551 1.24487C10.5983 1.08808 10.3857 1 10.1639 1C9.94221 1 9.72956 1.08808 9.57277 1.24487L6.00071 4.82526L2.42865 1.24487C2.27186 1.08808 2.05921 1 1.83748 1C1.61574 1 1.40309 1.08808 1.2463 1.24487C1.08951 1.40167 1.00142 1.61432 1.00142 1.83605C1.00142 2.05779 1.08951 2.27044 1.2463 2.42723L4.82668 5.99929L1.2463 9.57135C1.16825 9.64875 1.10631 9.74084 1.06404 9.84231C1.02176 9.94377 1 10.0526 1 10.1625C1 10.2724 1.02176 10.3813 1.06404 10.4827C1.10631 10.5842 1.16825 10.6763 1.2463 10.7537C1.3237 10.8317 1.41579 10.8937 1.51726 10.936C1.61872 10.9782 1.72756 11 1.83748 11C1.94739 11 2.05623 10.9782 2.15769 10.936C2.25916 10.8937 2.35125 10.8317 2.42865 10.7537L6.00071 7.17332L9.57277 10.7537C9.65017 10.8317 9.74226 10.8937 9.84373 10.936C9.9452 10.9782 10.054 11 10.1639 11C10.2739 11 10.3827 10.9782 10.4842 10.936C10.5856 10.8937 10.6777 10.8317 10.7551 10.7537C10.8332 10.6763 10.8951 10.5842 10.9374 10.4827C10.9797 10.3813 11.0014 10.2724 11.0014 10.1625C11.0014 10.0526 10.9797 9.94377 10.9374 9.84231C10.8951 9.74084 10.8332 9.64875 10.7551 9.57135L7.17474 5.99929Z" fill="#808191"/>
</svg>
