<svg width="240" height="83" viewBox="0 0 240 83" fill="none" xmlns="http://www.w3.org/2000/svg">
<path d="M20.5222 21.7452C13.7598 20.0968 9.63446 18.8147 9.63446 14.9162C9.63446 10.9653 13.2898 8.71514 19.6344 8.71514C23.7336 8.71514 27.9634 9.97104 31.5404 12.2474L32.5587 12.9015L35.4569 5.86318L34.8041 5.39221C30.9921 2.74957 25.3263 1.17969 19.6605 1.17969C6.13576 1.17969 1.30548 8.40116 1.30548 15.1517C1.30548 25.2513 10.5222 27.5014 17.9373 29.3068C24.6736 30.9552 28.7728 32.2111 28.7728 36.1096C28.7728 39.9297 25.0652 42.1275 18.5639 42.1275C13.2376 42.1275 7.62402 40.1652 4.28198 37.13L3.28981 36.2143L0 43.1479L0.548304 43.6451C4.46475 47.282 11.5405 49.6368 18.5901 49.6368C24.4125 49.6368 29.2167 48.2239 32.4804 45.5551C35.483 43.0956 37.1279 39.6157 37.1279 35.7171C37.1018 25.7745 27.9112 23.5505 20.5222 21.7452Z" fill="#1491EA"/>
<path d="M69.1899 8.9765C74.0463 8.9765 77.9888 10.6249 81.2264 14.0525L81.9314 14.7851L87.5449 9.31663L86.9183 8.61019C82.6885 3.82204 76.2917 1.20557 68.9288 1.20557C61.9836 1.20557 55.639 3.63889 51.0437 8.06073C46.4223 12.5087 43.8896 18.6836 43.8896 25.4341C43.8896 32.1846 46.4223 38.3595 51.0176 42.8075C55.5868 47.2293 61.9314 49.6627 68.8504 49.6627C76.2134 49.6627 82.6102 47.02 86.8922 42.1795L87.5188 41.4731L81.9053 36.0047L81.2003 36.7373C77.9366 40.191 73.994 41.8656 69.1638 41.8656C59.4249 41.8656 52.3492 34.9319 52.3492 25.4079C52.3753 15.884 59.451 8.9765 69.1899 8.9765Z" fill="#1491EA"/>
<path d="M174.829 1.70312H156.135V60.6C155.534 63.7659 153.968 66.8533 151.409 69.496C144.673 76.4296 134.856 76.6389 128.041 70.0193C124.621 66.6963 123.054 62.7978 123.211 58.1143V57.8788H123.237V49.4014C123.576 49.3491 123.916 49.2968 124.229 49.2445C135.743 47.2559 143.994 36.9732 143.994 25.2514H135.326C135.299 33.7549 128.694 41.4735 120.208 41.8398C119.947 41.8398 119.66 41.866 119.373 41.866C119.059 41.866 118.746 41.866 118.433 41.8398C109.947 41.4212 103.341 33.7549 103.315 25.2514H94.6729C94.6729 36.9209 102.897 47.1513 114.359 49.1921C114.699 49.2445 115.064 49.323 115.43 49.3491V57.1985H115.404L115.352 58.1666C114.96 64.5247 117.571 70.8042 122.715 75.8017C127.571 80.5375 133.733 83.1016 140.077 82.997C146.448 82.9185 152.584 80.145 157.336 75.226C161.722 70.6995 164.255 65.0741 164.568 59.2132L164.621 35.3248H174.829C187.101 35.3248 194.751 28.8621 194.751 18.4747C194.751 8.16582 187.127 1.70312 174.829 1.70312ZM174.647 27.737H164.647V9.3694H174.647C179.947 9.3694 186.265 10.9654 186.265 18.5532C186.265 26.141 179.947 27.737 174.647 27.737Z" fill="#1491EA"/>
<path d="M213.577 41.4997V28.836H236.293V21.3005H213.577V9.3694H239.087V1.70312H205.092V49.1398H240V41.4997H213.577Z" fill="#1491EA"/>
<path d="M124.987 7.6424C129.896 9.44777 133.551 13.451 134.857 18.7362H143.499C142.011 9.8664 135.979 3.03741 127.65 0.21162C125.092 -0.651816 122.402 1.23204 122.402 3.95317C122.402 5.60155 123.447 7.06678 124.987 7.6424Z" fill="#1491EA"/>
<path d="M113.655 7.72082C115.196 7.14519 116.24 5.67997 116.24 4.00543C116.24 1.2843 113.577 -0.599571 110.992 0.263865C102.689 3.08966 96.6318 9.91866 95.1436 18.7885H103.786C105.091 13.5294 108.747 9.55235 113.655 7.72082Z" fill="#1491EA"/>
</svg>
