<svg width="32" height="32" viewBox="0 0 32 32" fill="none" xmlns="http://www.w3.org/2000/svg">
<path d="M0 12.8C0 8.31958 0 6.07937 0.871948 4.36808C1.63893 2.86278 2.86278 1.63893 4.36808 0.871948C6.07937 0 8.31958 0 12.8 0H19.2C23.6804 0 25.9206 0 27.6319 0.871948C29.1372 1.63893 30.3611 2.86278 31.1281 4.36808C32 6.07937 32 8.31958 32 12.8V19.2C32 23.6804 32 25.9206 31.1281 27.6319C30.3611 29.1372 29.1372 30.3611 27.6319 31.1281C25.9206 32 23.6804 32 19.2 32H12.8C8.31958 32 6.07937 32 4.36808 31.1281C2.86278 30.3611 1.63893 29.1372 0.871948 27.6319C0 25.9206 0 23.6804 0 19.2V12.8Z" fill="#312E29"/>
<path d="M15.1663 10.3335C17.8357 10.3335 19.9997 12.4975 19.9997 15.1668C19.9997 16.261 19.6361 17.2702 19.0232 18.0803L21.8044 20.8621C22.0648 21.1224 22.0648 21.5446 21.8044 21.8049C21.5441 22.0653 21.122 22.0653 20.8616 21.8049L18.0798 19.0237C17.2697 19.6366 16.2605 20.0002 15.1663 20.0002C12.497 20.0002 10.333 17.8362 10.333 15.1668C10.333 12.4975 12.497 10.3335 15.1663 10.3335ZM15.1663 11.6668C13.2333 11.6668 11.6663 13.2338 11.6663 15.1668C11.6663 17.0998 13.2333 18.6668 15.1663 18.6668C17.0993 18.6668 18.6663 17.0998 18.6663 15.1668C18.6663 13.2338 17.0993 11.6668 15.1663 11.6668Z" fill="white"/>
</svg>
