<svg width="12" height="12" viewBox="0 0 12 12" fill="none" xmlns="http://www.w3.org/2000/svg">
<g clip-path="url(#clip0_1314_3706)">
<path d="M5.78557 2.52594L6.37807 2.04594V6.59994C6.37807 6.75907 6.45709 6.91168 6.59774 7.0242C6.73839 7.13672 6.92916 7.19994 7.12807 7.19994C7.32698 7.19994 7.51775 7.13672 7.6584 7.0242C7.79905 6.91168 7.87807 6.75907 7.87807 6.59994V2.04594L8.47057 2.52594C8.54029 2.58217 8.62324 2.62681 8.71464 2.65727C8.80603 2.68773 8.90406 2.70342 9.00307 2.70342C9.10208 2.70342 9.20011 2.68773 9.2915 2.65727C9.3829 2.62681 9.46585 2.58217 9.53557 2.52594C9.60587 2.47016 9.66166 2.4038 9.69974 2.33068C9.73781 2.25757 9.75742 2.17914 9.75742 2.09994C9.75742 2.02073 9.73781 1.94231 9.69974 1.86919C9.66166 1.79608 9.60587 1.72972 9.53557 1.67394L7.66057 0.173938C7.58924 0.119313 7.50513 0.0764944 7.41307 0.0479378C7.23047 -0.012073 7.02566 -0.012073 6.84307 0.0479378C6.75101 0.0764944 6.6669 0.119313 6.59557 0.173938L4.72057 1.67394C4.57934 1.78692 4.5 1.94016 4.5 2.09994C4.5 2.25972 4.57934 2.41296 4.72057 2.52594C4.8618 2.63892 5.05334 2.70239 5.25307 2.70239C5.4528 2.70239 5.64434 2.63892 5.78557 2.52594ZM5.47057 9.47394L4.87807 9.95394V5.39994C4.87807 5.24081 4.79905 5.0882 4.6584 4.97567C4.51775 4.86315 4.32698 4.79994 4.12807 4.79994C3.92916 4.79994 3.73839 4.86315 3.59774 4.97567C3.45709 5.0882 3.37807 5.24081 3.37807 5.39994V9.95394L2.78557 9.47394C2.71564 9.41799 2.63262 9.37362 2.54126 9.34334C2.44989 9.31306 2.35196 9.29748 2.25307 9.29748C2.15417 9.29748 2.05625 9.31306 1.96488 9.34334C1.87351 9.37362 1.7905 9.41799 1.72057 9.47394C1.65064 9.52988 1.59517 9.5963 1.55732 9.66939C1.51948 9.74248 1.5 9.82082 1.5 9.89994C1.5 9.97905 1.51948 10.0574 1.55732 10.1305C1.59517 10.2036 1.65064 10.27 1.72057 10.3259L3.59557 11.8259C3.6669 11.8806 3.751 11.9234 3.84307 11.9519C3.93284 11.9837 4.02992 12.0001 4.12807 12.0001C4.22622 12.0001 4.32329 11.9837 4.41307 11.9519C4.50513 11.9234 4.58924 11.8806 4.66057 11.8259L6.53557 10.3259C6.6768 10.213 6.75614 10.0597 6.75614 9.89994C6.75614 9.74016 6.6768 9.58692 6.53557 9.47394C6.39434 9.36096 6.2028 9.29748 6.00307 9.29748C5.80334 9.29748 5.6118 9.36096 5.47057 9.47394Z" fill="#BFC7DB"/>
</g>
<defs>
<clipPath id="clip0_1314_3706">
<rect width="12" height="12" fill="white"/>
</clipPath>
</defs>
</svg>
