<svg width="40" height="40" viewBox="0 0 40 40" fill="none" xmlns="http://www.w3.org/2000/svg">
<path d="M20 17.2617L20.7322 15.9935C20.9525 15.6119 20.8056 15.275 20.7322 15.1479C20.6589 15.0208 20.4406 14.7251 20 14.7251C19.5593 14.7251 19.3411 15.0207 19.2677 15.1479C19.1943 15.275 19.0474 15.6118 19.2677 15.9935L20 17.2617Z" fill="#BFC7DB"/>
<path d="M11.9884 27.7567C11.915 27.8838 11.7681 28.2206 11.9884 28.6023C12.2086 28.9838 12.5738 29.025 12.7206 29.025C12.8674 29.025 13.2325 28.9838 13.4529 28.6022L14.1851 27.334H12.7206C12.28 27.334 12.0618 27.6296 11.9884 27.7567Z" fill="#BFC7DB"/>
<path d="M18.2441 24.9902H21.7555L19.9998 21.9492L18.2441 24.9902Z" fill="#BFC7DB"/>
<path d="M26.25 10.1562C25.6028 10.1562 25.0781 9.63156 25.0781 8.98438V0H8.28125C6.34273 0 4.76562 1.57711 4.76562 3.51562V36.4844C4.76562 38.4229 6.34273 40 8.28125 40H31.7188C33.6573 40 35.2344 38.4229 35.2344 36.4844V10.1562H26.25ZM30.0416 29.7741C29.4652 30.7725 28.4327 31.3687 27.2797 31.3687C26.1266 31.3687 25.0941 30.7726 24.5177 29.7741L23.1088 27.3339H16.8912L15.4823 29.7741C14.9059 30.7725 13.8733 31.3687 12.7203 31.3687C12.7202 31.3687 12.7203 31.3687 12.7202 31.3687C11.5673 31.3687 10.5348 30.7725 9.95836 29.774C9.38188 28.7755 9.3818 27.5832 9.95836 26.5848C10.5348 25.5863 11.5673 24.9902 12.7203 24.9902H15.538L18.6468 19.6055L17.238 17.1653C16.6615 16.1668 16.6614 14.9745 17.238 13.976C17.8145 12.9775 18.847 12.3813 20 12.3813C21.153 12.3813 22.1855 12.9774 22.762 13.976C23.3386 14.9745 23.3385 16.1668 22.762 17.1653L21.3531 19.6055L24.462 24.9902H27.2796C28.4326 24.9902 29.4651 25.5863 30.0416 26.5848C30.6181 27.5833 30.618 28.7755 30.0416 29.7741Z" fill="#BFC7DB"/>
<path d="M27.28 27.334H25.8154L26.5477 28.6023C26.768 28.9838 27.1332 29.025 27.28 29.025C27.4268 29.025 27.7919 28.9838 28.0121 28.6023C28.2325 28.2206 28.0855 27.8838 28.0121 27.7567C27.9388 27.6296 27.7205 27.334 27.28 27.334Z" fill="#BFC7DB"/>
<path d="M27.4219 0.686035V7.81236H34.5477L27.4219 0.686035Z" fill="#BFC7DB"/>
</svg>
