<svg width="13" height="12" viewBox="0 0 13 12" fill="none" xmlns="http://www.w3.org/2000/svg">
<path fill-rule="evenodd" clip-rule="evenodd" d="M8.7885 11.1841H4.3765C2.656 11.1841 1.5 9.97657 1.5 8.17957V4.02257C1.5 2.22557 2.656 1.01807 4.3765 1.01807H6.246C6.453 1.01807 6.621 1.18607 6.621 1.39307C6.621 1.60007 6.453 1.76807 6.246 1.76807H4.3765C3.0845 1.76807 2.25 2.65307 2.25 4.02257V8.17957C2.25 9.54907 3.0845 10.4341 4.3765 10.4341H8.7885C10.0805 10.4341 10.9155 9.54907 10.9155 8.17957V6.16557C10.9155 5.95857 11.0835 5.79057 11.2905 5.79057C11.4975 5.79057 11.6655 5.95857 11.6655 6.16557V8.17957C11.6655 9.97657 10.509 11.1841 8.7885 11.1841Z" fill="#1491EA"/>
<path fill-rule="evenodd" clip-rule="evenodd" d="M4.93344 7.714H6.42194C6.61194 7.714 6.78994 7.6405 6.92444 7.506L10.6789 3.7515C10.8329 3.5975 10.9179 3.3925 10.9179 3.1745C10.9179 2.956 10.8329 2.7505 10.6789 2.5965L10.0704 1.988C9.75194 1.6705 9.23394 1.6705 8.91494 1.988L5.17844 5.7245C5.04894 5.854 4.97544 6.026 4.97094 6.2085L4.93344 7.714ZM6.42194 8.464H4.54894C4.44794 8.464 4.35094 8.423 4.28044 8.3505C4.20994 8.2785 4.17144 8.181 4.17394 8.0795L4.22094 6.19C4.23044 5.814 4.38194 5.4605 4.64794 5.194H4.64844L8.38494 1.4575C8.99594 0.8475 9.98944 0.8475 10.6004 1.4575L11.2089 2.066C11.5054 2.362 11.6684 2.7555 11.6679 3.1745C11.6679 3.5935 11.5049 3.9865 11.2089 4.282L7.45444 8.0365C7.17894 8.312 6.81194 8.464 6.42194 8.464Z" fill="#1491EA"/>
<path fill-rule="evenodd" clip-rule="evenodd" d="M10.3659 4.95818C10.2699 4.95818 10.1739 4.92168 10.1009 4.84818L7.81788 2.56518C7.67138 2.41868 7.67138 2.18118 7.81788 2.03468C7.96438 1.88818 8.20138 1.88818 8.34788 2.03468L10.6309 4.31818C10.7774 4.46468 10.7774 4.70168 10.6309 4.84818C10.5579 4.92168 10.4619 4.95818 10.3659 4.95818Z" fill="#1491EA"/>
</svg>
